<!--suppress ALL -->


























<svg xmlns:mydata="http://www.w3.org/2000/svg" mydata:layouttype="undefined" mydata:specialfontid="undefined" mydata:id1="369" mydata:id2="202" mydata:companyname="SBRPGenetic" mydata:companytagline="" version="1.1" xmlns="http://www.w3.org/2000/svg" xmlns:xlink="http://www.w3.org/1999/xlink" viewBox="0 190 550 90" style="background-color: rgb(255, 255, 255) 0%;; background-image: radial-gradient(circle closest-side, rgba(255, 255, 255, 0.07) 0%, rgba(255, 255, 255, 0) 100%);"><defs style="animation-play-state: running;"><g fill-rule="none" font-family="none" font-weight="none" font-size="none" text-anchor="none" style="mix-blend-mode: normal; animation-play-state: running;" id="interstellar-group"><g data-paper-data="{&quot;isGlobalGroup&quot;:true,&quot;bounds&quot;:{&quot;x&quot;:64.99999999999997,&quot;y&quot;:207.15261519624826,&quot;width&quot;:420,&quot;height&quot;:55.6947696075035}}" style="animation-play-state: running;"><g data-paper-data="{&quot;isPrimaryText&quot;:true}" fill-rule="nonzero" style="animation-play-state: running;"><path d="M223.55124,244.61897c-0.94518,-0.72013 -2.02538,-1.35025 -3.1956,-1.80034c-1.0802,-0.40508 -2.1154,-0.81015 -3.10558,-1.12521c-0.67513,-0.22504 -1.26024,-0.45008 -1.80034,-0.67513c-0.49509,-0.18003 -0.90017,-0.40508 -1.26024,-0.58511c-0.27005,-0.18003 -0.45008,-0.40508 -0.58511,-0.58511c-0.13503,-0.22504 -0.18003,-0.45008 -0.18003,-0.81015c0,-0.40508 0.09002,-0.72013 0.22504,-0.90017c0.18003,-0.31506 0.40508,-0.49509 0.67513,-0.67513c0.31506,-0.18003 0.63012,-0.31506 0.99019,-0.36007c0.40508,-0.09002 0.81015,-0.13503 1.21523,-0.13503c0.76514,0 1.57529,0.22504 2.43045,0.63012c0.81015,0.40508 1.48528,0.94518 2.02538,1.6203c0.13503,0.22504 0.40508,0.36007 0.67513,0.36007c0.31506,0.04501 0.58511,-0.09002 0.76514,-0.31506l4.45583,-4.90592c0.18003,-0.22504 0.27005,-0.45008 0.27005,-0.72013c0,-0.22504 -0.13503,-0.49509 -0.31506,-0.67513c-1.35025,-1.30524 -2.97056,-2.29543 -4.8159,-2.97056c-1.80034,-0.67513 -3.60067,-1.03519 -5.356,-1.03519c-1.44027,0 -2.88054,0.22504 -4.32081,0.58511c-1.44027,0.40508 -2.74551,0.99019 -3.91573,1.84535c-1.17022,0.85516 -2.1154,1.93536 -2.83553,3.28561c-0.76514,1.35025 -1.12521,2.97056 -1.12521,4.8159c0,1.48528 0.22504,2.79052 0.72013,3.87072c0.49509,1.0802 1.12521,2.02538 1.89035,2.79052c0.76514,0.72013 1.66531,1.35025 2.6555,1.80034c0.90017,0.45008 1.84535,0.85516 2.83553,1.17022c0.94518,0.31506 1.80034,0.58511 2.52047,0.85516c0.67513,0.27005 1.26024,0.5401 1.71032,0.81015c0.40508,0.27005 0.72013,0.5401 0.90017,0.85516c0.18003,0.22504 0.22504,0.49509 0.22504,0.90017c0,0.40508 -0.04501,0.81015 -0.22504,1.0802c-0.13503,0.27005 -0.31506,0.49509 -0.5401,0.67513c-0.27005,0.18003 -0.63012,0.31506 -0.99019,0.40508c-0.40508,0.09002 -0.85516,0.18003 -1.30524,0.18003c-0.99019,0 -2.02538,-0.31506 -3.01556,-0.85516c-1.03519,-0.5401 -1.89035,-1.21523 -2.52047,-2.02538c-0.18003,-0.22504 -0.45008,-0.36007 -0.72013,-0.36007c-0.27005,0 -0.5401,0.09002 -0.72013,0.31506l-4.59086,4.86091c-0.36007,0.40508 -0.36007,0.99019 0,1.35025c1.35025,1.53029 3.10558,2.70051 5.17597,3.51066c2.07039,0.76514 4.18578,1.17022 6.3912,1.17022c1.48528,0 2.97056,-0.18003 4.41083,-0.63012c1.44027,-0.45008 2.74551,-1.12521 3.91573,-2.02538c1.12521,-0.90017 2.07039,-2.07039 2.74551,-3.46565c0.67513,-1.39526 0.99019,-3.06057 0.99019,-4.95093c0,-1.71032 -0.31506,-3.15059 -0.99019,-4.32081c-0.63012,-1.12521 -1.44027,-2.07039 -2.38545,-2.83553z" data-paper-data="{&quot;glyphName&quot;:&quot;S&quot;,&quot;glyphIndex&quot;:0,&quot;firstGlyphOfWord&quot;:true,&quot;word&quot;:1}" style="animation-play-state: running;"></path><path d="M252.76171,249.97498c-0.36007,-0.90017 -0.81015,-1.71032 -1.44027,-2.38545c-0.58511,-0.67513 -1.30524,-1.21523 -2.1154,-1.66531c-0.36007,-0.18003 -0.72013,-0.36007 -1.12521,-0.49509c0.99019,-0.5401 1.80034,-1.21523 2.47546,-2.07039c0.99019,-1.26024 1.48528,-2.88054 1.48528,-4.77089c0,-1.71032 -0.31506,-3.15059 -0.99019,-4.2758c-0.67513,-1.12521 -1.57529,-2.02538 -2.6555,-2.70051c-1.03519,-0.63012 -2.20541,-1.0802 -3.51066,-1.35025c-1.26024,-0.27005 -2.47546,-0.40508 -3.69069,-0.40508h-12.10727c-0.27005,0 -0.49509,0.22504 -0.49509,0.5401v31.91097c0,0.31506 0.22504,0.5401 0.49509,0.5401h12.10727c1.48528,0 2.97056,-0.18003 4.36582,-0.49509c1.44027,-0.31506 2.74551,-0.85516 3.91573,-1.6203c1.12521,-0.76514 2.07039,-1.80034 2.79052,-3.06057c0.67513,-1.26024 1.03519,-2.83553 1.03519,-4.63587c0,-1.12521 -0.18003,-2.1604 -0.5401,-3.06057zM242.99488,241.78344c-0.63012,0.5401 -1.6203,0.76514 -2.88054,0.76514h-3.42064v-5.49103h3.10558c1.44027,0 2.52047,0.22504 3.1956,0.67513c0.63012,0.40508 0.94518,1.03519 0.94518,1.89035c0,0.99019 -0.31506,1.66531 -0.94518,2.1604zM236.6937,249.34486h3.55567c1.48528,0 2.70051,0.22504 3.55567,0.67513c0.76514,0.45008 1.12521,1.17022 1.12521,2.29543c0,0.63012 -0.13503,1.17022 -0.40508,1.57529c-0.27005,0.45008 -0.58511,0.76514 -0.99019,0.99019c-0.45008,0.22504 -0.99019,0.40508 -1.53029,0.49509c-0.58511,0.09002 -1.17022,0.18003 -1.71032,0.18003h-3.60067z" data-paper-data="{&quot;glyphName&quot;:&quot;B&quot;,&quot;glyphIndex&quot;:1,&quot;word&quot;:1}" style="animation-play-state: running;"></path><path d="M280.66693,262.03723l-7.4714,-13.09745c1.75533,-0.67513 3.15059,-1.71032 4.18578,-3.10558c1.17022,-1.57529 1.75533,-3.51066 1.75533,-5.80609c0,-1.89035 -0.36007,-3.51066 -1.03519,-4.8159c-0.67513,-1.30524 -1.6203,-2.38545 -2.74551,-3.1956c-1.17022,-0.76514 -2.47546,-1.35025 -3.87072,-1.66531c-1.39526,-0.31506 -2.88054,-0.49509 -4.32081,-0.49509h-11.38713c-0.31506,0 -0.58511,0.22504 -0.58511,0.5401v31.91097c0,0.27005 0.27005,0.5401 0.58511,0.5401h7.02131c0.31506,0 0.5401,-0.27005 0.5401,-0.5401v-12.10727h1.57529l6.34619,12.33231c0.09002,0.18003 0.27005,0.31506 0.49509,0.31506h8.41657c0.22504,0 0.40508,-0.13503 0.49509,-0.27005c0.09002,-0.18003 0.09002,-0.40508 0,-0.5401zM270.99012,239.80307c0,0.72013 -0.13503,1.30524 -0.40508,1.71032c-0.31506,0.45008 -0.63012,0.76514 -1.0802,1.03519c-0.45008,0.22504 -0.99019,0.40508 -1.53029,0.49509c-0.58511,0.09002 -1.17022,0.13503 -1.75533,0.13503h-2.92555v-6.4362h3.37563c0.49509,0 1.03519,0.04501 1.57529,0.13503c0.5401,0.04501 0.99019,0.22504 1.39526,0.45008c0.40508,0.22504 0.72013,0.49509 0.94518,0.90017c0.27005,0.40508 0.40508,0.90017 0.40508,1.57529z" data-paper-data="{&quot;glyphName&quot;:&quot;R&quot;,&quot;glyphIndex&quot;:2,&quot;word&quot;:1}" style="animation-play-state: running;"></path><path d="M304.5664,235.43726c-0.63012,-1.35025 -1.53029,-2.43045 -2.6555,-3.24061c-1.0802,-0.85516 -2.38545,-1.44027 -3.87072,-1.80034c-1.44027,-0.36007 -3.01556,-0.5401 -4.63587,-0.5401h-10.93705c-0.27005,0 -0.49509,0.22504 -0.49509,0.5401v31.95598c0,0.27005 0.22504,0.49509 0.49509,0.49509h7.4714c0.27005,0 0.49509,-0.22504 0.49509,-0.49509v-11.25211h2.79052c1.57529,0 3.10558,-0.18003 4.54585,-0.5401c1.48528,-0.40508 2.83553,-0.99019 3.96074,-1.84535c1.17022,-0.85516 2.07039,-1.93536 2.79052,-3.33062c0.67513,-1.35025 0.99019,-3.06057 0.99019,-4.99593c0,-1.93536 -0.31506,-3.60067 -0.94518,-4.95093zM297.32004,240.43319c0,0.63012 -0.13503,1.21523 -0.36007,1.6203c-0.27005,0.45008 -0.58511,0.76514 -0.99019,1.03519c-0.40508,0.27005 -0.94518,0.45008 -1.48528,0.58511c-0.58511,0.09002 -1.17022,0.18003 -1.80034,0.18003h-2.25042v-6.61624h2.34044c0.63012,0 1.21523,0.04501 1.80034,0.13503c0.5401,0.04501 1.03519,0.22504 1.44027,0.45008c0.40508,0.27005 0.72013,0.5401 0.94518,0.99019c0.22504,0.40508 0.36007,0.94518 0.36007,1.6203z" data-paper-data="{&quot;glyphName&quot;:&quot;P&quot;,&quot;glyphIndex&quot;:3,&quot;word&quot;:1}" style="animation-play-state: running;"></path><path d="M334.22695,243.04368h-9.81184c-0.31506,0 -0.58511,0.27005 -0.58511,0.63012v5.85109c0,0.36007 0.27005,0.63012 0.58511,0.63012h3.24061v4.45583c-0.45008,0.18003 -0.94518,0.31506 -1.44027,0.40508c-0.67513,0.13503 -1.44027,0.18003 -2.1604,0.18003c-1.30524,0 -2.43045,-0.18003 -3.42064,-0.63012c-0.99019,-0.45008 -1.84535,-1.03519 -2.47546,-1.80034c-0.67513,-0.76514 -1.17022,-1.71032 -1.53029,-2.79052c-0.36007,-1.0802 -0.5401,-2.29543 -0.5401,-3.64568c0,-1.26024 0.22504,-2.47546 0.58511,-3.55567c0.40508,-1.03519 0.94518,-1.98037 1.6203,-2.74551c0.67513,-0.81015 1.48528,-1.39526 2.38545,-1.84535c0.94518,-0.40508 1.93536,-0.63012 3.06057,-0.63012c1.26024,0 2.43045,0.22504 3.42064,0.72013c0.85516,0.45008 1.6203,0.99019 2.20541,1.6203c0.09002,0.13503 0.27005,0.22504 0.40508,0.22504h0.04501c0.18003,-0.04501 0.36007,-0.13503 0.45008,-0.27005l3.96074,-5.44602c0.22504,-0.27005 0.18003,-0.63012 -0.09002,-0.85516c-1.12521,-1.03519 -2.56548,-1.89035 -4.2758,-2.56548c-1.93536,-0.72013 -4.09577,-1.12521 -6.3912,-1.12521c-2.1604,0 -4.2758,0.40508 -6.16615,1.17022c-1.89035,0.76514 -3.60067,1.89035 -4.99593,3.28561c-1.44027,1.44027 -2.56548,3.1956 -3.37563,5.22098c-0.81015,2.02538 -1.21523,4.32081 -1.21523,6.79627c0,2.47546 0.40508,4.72588 1.21523,6.75126c0.76514,2.02538 1.89035,3.78071 3.28561,5.22098c1.39526,1.44027 3.10558,2.56548 5.08595,3.37563c1.93536,0.76514 4.09577,1.17022 6.3912,1.17022c2.20541,0 4.2758,-0.22504 6.12115,-0.72013c1.75533,-0.49509 3.33062,-1.0802 4.68088,-1.80034c0.18003,-0.13503 0.31506,-0.31506 0.31506,-0.5401v-16.11301c0,-0.36007 -0.27005,-0.63012 -0.58511,-0.63012z" data-paper-data="{&quot;glyphName&quot;:&quot;G&quot;,&quot;glyphIndex&quot;:4,&quot;word&quot;:1}" style="animation-play-state: running;"></path><path d="M359.02659,255.01592h-12.91742v-5.26599h11.47715c0.36007,0 0.63012,-0.31506 0.63012,-0.67513v-6.12115c0,-0.36007 -0.27005,-0.67513 -0.63012,-0.67513h-11.47715v-4.68088h12.19728c0.31506,0 0.58511,-0.27005 0.58511,-0.63012v-6.4362c0,-0.36007 -0.27005,-0.67513 -0.58511,-0.67513h-19.57866c-0.31506,0 -0.63012,0.31506 -0.63012,0.67513v31.64092c0,0.36007 0.31506,0.67513 0.63012,0.67513h20.2988c0.31506,0 0.63012,-0.31506 0.63012,-0.67513v-6.52622c0,-0.36007 -0.31506,-0.63012 -0.63012,-0.63012z" data-paper-data="{&quot;glyphName&quot;:&quot;E&quot;,&quot;glyphIndex&quot;:5,&quot;word&quot;:1}" style="animation-play-state: running;"></path><path d="M388.77715,229.85621h-6.70625c-0.49509,0 -0.90017,0.40508 -0.90017,0.90017v15.88797l-10.57698,-16.15802c-0.09002,-0.36007 -0.45008,-0.63012 -0.85516,-0.63012h-6.70625c-0.49509,0 -0.90017,0.40508 -0.90017,0.90017v31.19084c0,0.49509 0.40508,0.90017 0.90017,0.90017h6.70625c0.49509,0 0.90017,-0.40508 0.90017,-0.90017v-15.84296l10.62199,16.24804c0.18003,0.31506 0.45008,0.49509 0.81015,0.49509h6.70625c0.49509,0 0.90017,-0.40508 0.90017,-0.90017v-31.19084c0,-0.49509 -0.40508,-0.90017 -0.90017,-0.90017z" data-paper-data="{&quot;glyphName&quot;:&quot;N&quot;,&quot;glyphIndex&quot;:6,&quot;word&quot;:1}" style="animation-play-state: running;"></path><path d="M414.702,255.01592h-12.91742v-5.26599h11.47715c0.36007,0 0.63012,-0.31506 0.63012,-0.67513v-6.12115c0,-0.36007 -0.27005,-0.67513 -0.63012,-0.67513h-11.47715v-4.68088h12.19728c0.31506,0 0.58511,-0.27005 0.58511,-0.63012v-6.4362c0,-0.36007 -0.27005,-0.67513 -0.58511,-0.67513h-19.57866c-0.31506,0 -0.63012,0.31506 -0.63012,0.67513v31.64092c0,0.36007 0.31506,0.67513 0.63012,0.67513h20.2988c0.31506,0 0.63012,-0.31506 0.63012,-0.67513v-6.52622c0,-0.36007 -0.31506,-0.63012 -0.63012,-0.63012z" data-paper-data="{&quot;glyphName&quot;:&quot;E&quot;,&quot;glyphIndex&quot;:7,&quot;word&quot;:1}" style="animation-play-state: running;"></path><path d="M442.15714,229.85621h-23.85446c-0.27005,0 -0.49509,0.22504 -0.49509,0.5401v6.57123c0,0.31506 0.22504,0.5401 0.49509,0.5401h7.65143v24.79964c0,0.27005 0.22504,0.5401 0.5401,0.5401h7.51641c0.31506,0 0.5401,-0.27005 0.5401,-0.5401v-24.79964h7.60642c0.31506,0 0.5401,-0.22504 0.5401,-0.5401v-6.57123c0,-0.31506 -0.22504,-0.5401 -0.5401,-0.5401z" data-paper-data="{&quot;glyphName&quot;:&quot;T&quot;,&quot;glyphIndex&quot;:8,&quot;word&quot;:1}" style="animation-play-state: running;"></path><path d="M454.62447,229.85621h-7.74145c-0.31506,0 -0.5401,0.22504 -0.5401,0.5401v31.91097c0,0.31506 0.22504,0.5401 0.5401,0.5401h7.74145c0.31506,0 0.5401,-0.22504 0.5401,-0.5401v-31.91097c0,-0.31506 -0.22504,-0.5401 -0.5401,-0.5401z" data-paper-data="{&quot;glyphName&quot;:&quot;I&quot;,&quot;glyphIndex&quot;:9,&quot;word&quot;:1}" style="animation-play-state: running;"></path><path d="M484.82512,257.35636l-4.63587,-4.86091c-0.09002,-0.13503 -0.27005,-0.18003 -0.40508,-0.18003c0,0 0,0 -0.04501,0c-0.13503,0 -0.31506,0.04501 -0.40508,0.18003c-0.5401,0.67513 -1.17022,1.21523 -1.98037,1.66531c-0.90017,0.49509 -2.02538,0.76514 -3.28561,0.76514c-1.12521,0 -2.1154,-0.22504 -3.01556,-0.63012c-0.94518,-0.40508 -1.71032,-0.99019 -2.38545,-1.75533c-0.63012,-0.72013 -1.17022,-1.6203 -1.53029,-2.70051c-0.40508,-1.03519 -0.58511,-2.25042 -0.58511,-3.51066c0,-1.26024 0.18003,-2.43045 0.58511,-3.46565c0.36007,-1.03519 0.90017,-1.98037 1.57529,-2.74551c0.63012,-0.72013 1.44027,-1.35025 2.38545,-1.75533c0.94518,-0.45008 1.98037,-0.67513 3.06057,-0.67513c1.03519,0 2.02538,0.22504 3.01556,0.63012c0.72013,0.36007 1.39526,0.81015 1.89035,1.39526c0.13503,0.13503 0.27005,0.22504 0.45008,0.22504v0c0.18003,0 0.31506,-0.09002 0.40508,-0.18003l4.68088,-4.90592c0.09002,-0.13503 0.13503,-0.27005 0.13503,-0.45008c0,-0.18003 -0.04501,-0.31506 -0.13503,-0.45008c-1.21523,-1.26024 -2.74551,-2.25042 -4.50084,-2.92555c-2.02538,-0.76514 -4.09577,-1.17022 -6.16615,-1.17022c-2.25042,0 -4.36582,0.40508 -6.30118,1.17022c-1.93536,0.76514 -3.64568,1.84535 -5.08595,3.28561c-1.48528,1.44027 -2.61049,3.1956 -3.42064,5.22098c-0.85516,2.02538 -1.26024,4.32081 -1.26024,6.79627c0,2.43045 0.40508,4.68088 1.21523,6.70625c0.81015,2.02538 1.93536,3.78071 3.37563,5.22098c1.39526,1.48528 3.10558,2.61049 5.04094,3.42064c1.93536,0.76514 4.05076,1.17022 6.30118,1.17022c2.52047,0 4.77089,-0.45008 6.66125,-1.39526c1.71032,-0.81015 3.15059,-1.89035 4.41083,-3.24061c0.18003,-0.22504 0.18003,-0.63012 -0.04501,-0.85516z" data-paper-data="{&quot;glyphName&quot;:&quot;C&quot;,&quot;glyphIndex&quot;:10,&quot;lastGlyphOfWord&quot;:true,&quot;word&quot;:1}" style="animation-play-state: running;"></path></g><g data-paper-data="{&quot;fillRule&quot;:&quot;evenodd&quot;,&quot;fillRuleOriginal&quot;:&quot;evenodd&quot;,&quot;isIcon&quot;:true,&quot;iconStyle&quot;:&quot;standalone&quot;,&quot;selectedEffects&quot;:{&quot;container&quot;:&quot;&quot;,&quot;transformation&quot;:&quot;rotate0;translate0;flipX&quot;,&quot;pattern&quot;:&quot;&quot;},&quot;bounds&quot;:{&quot;x&quot;:64.99999999999997,&quot;y&quot;:207.15261519624826,&quot;width&quot;:116.84297474382024,&quot;height&quot;:55.69398796147246},&quot;iconType&quot;:&quot;icon&quot;,&quot;rawIconId&quot;:&quot;combine_dd679b30-4153-4efa-86d2-95f90dba48b8&quot;,&quot;suitableAsStandaloneIcon&quot;:true}" fill-rule="evenodd" style="animation-play-state: running;"><g data-paper-data="{&quot;isPathIcon&quot;:true}" style="animation-play-state: running;"><path d="M65,222.59861c0.0395,-0.258 0.1527,-0.515 0.3481,-0.71c0.4641,-0.465 1.1603,-0.465 1.6244,0c3.2489,3.248 8.7023,4.061 15.2001,2.436c1.7404,-6.498 0.8122,-11.835 -2.4367,-15.2c-0.4641,-0.464 -0.4641,-1.16 0,-1.624c0.2317,-0.232 0.5214,-0.348 0.8112,-0.348h0.0021c0.2897,0 0.5794,0.116 0.8111,0.348c3.597,3.713 4.7573,9.398 3.2489,16.128c1.9725,-0.464 3.713,-0.58 5.4534,-0.58c5.1054,0 9.1665,1.856 11.8354,5.221c2.785,3.597 3.481,8.935 2.204,14.968c6.846,-1.508 12.532,-0.348 16.129,3.249c0.464,0.464 0.464,1.16 0,1.624c-0.464,0.465 -1.161,0.465 -1.625,0c-3.249,-3.248 -8.702,-4.061 -15.2,-2.436c-1.74,6.498 -0.812,11.835 2.437,15.2c0.464,0.464 0.464,1.16 0,1.624c-0.232,0.232 -0.464,0.348 -0.812,0.348c-0.348,0 -0.581,-0.116 -0.813,-0.348c-3.597,-3.713 -4.7569,-9.398 -3.248,-16.128c-1.973,0.464 -3.7134,0.58 -5.4539,0.58c-5.1054,0 -9.1664,-1.856 -11.8351,-5.221c-2.7848,-3.597 -3.481,-8.935 -2.2046,-14.968c-1.9726,0.464 -3.829,0.696 -5.5695,0.696c-4.4092,0 -8.0061,-1.276 -10.6748,-3.945c-0.1212,-0.121 -0.2002,-0.299 -0.2321,-0.498zM90.17869,225.36861c-1.8565,0 -3.9451,0.233 -6.1497,0.813c-1.5084,5.801 -0.9282,10.907 1.5084,14.155c2.0886,2.785 5.5695,4.294 9.9787,4.294c1.8565,0 3.945,-0.233 6.1499,-0.813c1.508,-5.801 0.928,-10.907 -1.509,-14.155c-2.0882,-2.785 -5.5692,-4.294 -9.9783,-4.294z" style="animation-play-state: running;"></path><path d="M174.39898,210.11361c1.643,0.821 2.988,2.998 2.988,4.836v5.569h1.114c1.838,0 3.342,1.504 3.342,3.342v3.342c0,1.838 -1.504,3.341 -3.342,3.341h-1.114v22.835c0,1.447 -0.934,2.684 -2.227,3.145v1.868c0,2.45 -2.005,4.455 -4.456,4.455c-2.451,0 -4.456,-2.005 -4.456,-4.455v-1.671h-24.50499v1.671c0,2.45 -2.005,4.455 -4.456,4.455c-2.45,0 -4.455,-2.005 -4.455,-4.455v-1.868c-1.294,-0.461 -2.228,-1.697 -2.228,-3.145v-22.835h-1.114c-1.838,0 -3.342,-1.503 -3.342,-3.341v-3.342c0,-1.838 1.504,-3.342 3.342,-3.342h1.114v-5.569c0,-1.838 1.345,-4.015 2.989,-4.836c0,0 5.922,-2.961 20.403,-2.961c14.48,0 20.403,2.961 20.403,2.961zM165.13498,212.72161c0,-0.613 -0.502,-1.114 -1.114,-1.114h-20.05c-0.613,0 -1.114,0.501 -1.114,1.114v2.228c0,0.613 0.501,1.114 1.114,1.114h20.05c0.612,0 1.114,-0.501 1.114,-1.114zM135.05898,239.45561c0,0.612 0.502,1.113 1.114,1.113h35.64499c0.613,0 1.114,-0.501 1.114,-1.113v-17.823c0,-0.612 -0.501,-1.114 -1.114,-1.114h-35.64499c-0.612,0 -1.114,0.502 -1.114,1.114zM140.62898,249.48061c0,-1.538 -1.247,-2.785 -2.785,-2.785c-1.538,0 -2.785,1.247 -2.785,2.785c0,1.537 1.247,2.784 2.785,2.784c1.538,0 2.785,-1.247 2.785,-2.784zM172.93198,249.48061c0,-1.538 -1.247,-2.785 -2.785,-2.785c-1.538,0 -2.785,1.247 -2.785,2.785c0,1.537 1.247,2.784 2.785,2.784c1.538,0 2.785,-1.247 2.785,-2.784z" style="animation-play-state: running;"></path><path d="M79.8519,211.56161c0.3481,0.464 0.3481,1.16 0,1.624l-8.8183,8.819c-0.2321,0.232 -0.5802,0.348 -0.8122,0.348c-0.3481,0 -0.5802,-0.116 -0.8122,-0.348c-0.4642,-0.465 -0.4642,-1.161 0,-1.625l8.8183,-8.818c0.4641,-0.464 1.1603,-0.464 1.6244,0z" style="animation-play-state: running;"></path><path d="M79.968,216.08661c0.4641,-0.464 1.1603,-0.464 1.6244,0c0.4641,0.464 0.4641,1.16 0,1.624l-6.0336,6.034c-0.2321,0.232 -0.5802,0.348 -0.8122,0.348c-0.3481,0 -0.5802,-0.116 -0.8122,-0.348c-0.4642,-0.464 -0.4642,-1.16 0,-1.624z" style="animation-play-state: running;"></path><path d="M85.3054,235.11561c-0.4641,-0.464 -0.4641,-1.16 0,-1.624l6.0336,-6.034c0.4641,-0.464 1.1603,-0.464 1.6244,0c0.4641,0.464 0.4641,1.16 0,1.624l-6.0336,6.034c-0.232,0.232 -0.5801,0.348 -0.8122,0.348c-0.2321,0 -0.5802,-0.116 -0.8122,-0.348z" style="animation-play-state: running;"></path><path d="M96.44429,229.77861c0.4642,-0.465 1.1603,-0.465 1.6245,0c0.4641,0.464 0.4641,1.16 0,1.624l-8.8184,8.818c-0.232,0.232 -0.5801,0.348 -0.8122,0.348c-0.3481,0 -0.5801,-0.116 -0.8122,-0.348c-0.4641,-0.464 -0.4641,-1.16 0,-1.624z" style="animation-play-state: running;"></path><path d="M92.73129,240.91761l6.0337,-6.034c0.4641,-0.464 1.1603,-0.464 1.624,0c0.465,0.464 0.465,1.16 0,1.624l-6.0332,6.034c-0.2321,0.232 -0.5802,0.348 -0.8122,0.348c-0.3481,0 -0.5802,-0.116 -0.8123,-0.348c-0.4641,-0.464 -0.4641,-1.16 0,-1.624z" style="animation-play-state: running;"></path><path d="M105.72699,253.79661c-0.232,0.232 -0.58,0.348 -0.812,0.348c-0.349,0 -0.581,-0.116 -0.813,-0.348c-0.464,-0.464 -0.464,-1.16 0,-1.624l6.034,-6.034c0.464,-0.464 1.16,-0.464 1.624,0c0.465,0.464 0.465,1.16 0,1.624z" style="animation-play-state: running;"></path><path d="M105.84299,256.6976c-0.464,0.464 -0.464,1.276 0,1.624c0.232,0.232 0.58,0.348 0.812,0.348c0.232,0 0.58,-0.116 0.812,-0.348l8.819,-8.818c0.464,-0.464 0.464,-1.16 0,-1.625c-0.465,-0.464 -1.161,-0.464 -1.625,0z" style="animation-play-state: running;"></path></g></g><path d="M190.31675,262.84738v-55.69477h1.53803v55.69477z" data-paper-data="{&quot;isShapeTextSeparator&quot;:true}" fill-rule="nonzero" style="animation-play-state: running;"></path></g></g></defs><style style="animation-play-state: running;">
            .strokeItem{
                fill: none;
                stroke-width: 2;
                stroke-linejoin: round;
                stroke-dasharray: 70 90;
                stroke-dashoffset: 0;
                animation: stroke 6000ms infinite linear;
            }

            @keyframes stroke {
                100% {
                    stroke-dashoffset: -160;
                }
            }
        </style><use href="#interstellar-group" class="strokeItem" style="stroke: rgb(120, 190, 32); animation-delay: 0ms; animation-play-state: running;"></use><use href="#interstellar-group" class="strokeItem" style="stroke: rgb(0, 98, 114); animation-delay: -3000ms; animation-play-state: running;"></use></svg>